<svg width="39" height="39" viewBox="0 0 39 39" fill="none" xmlns="http://www.w3.org/2000/svg">
<path d="M11.3865 19.4999C11.3865 19.1766 11.5149 18.8666 11.7434 18.6381C11.972 18.4095 12.282 18.2811 12.6052 18.2811H18.2813V12.605C18.2813 12.2817 18.4098 11.9718 18.6383 11.7432C18.8669 11.5146 19.1769 11.3862 19.5001 11.3862C19.8233 11.3862 20.1333 11.5146 20.3619 11.7432C20.5904 11.9718 20.7188 12.2817 20.7188 12.605V18.2811H26.395C26.7182 18.2811 27.0282 18.4095 27.2568 18.6381C27.4853 18.8666 27.6137 19.1766 27.6137 19.4999C27.6137 19.8231 27.4853 20.1331 27.2568 20.3616C27.0282 20.5902 26.7182 20.7186 26.395 20.7186H20.7188V26.3947C20.7188 26.718 20.5904 27.028 20.3619 27.2565C20.1333 27.4851 19.8233 27.6135 19.5001 27.6135C19.1769 27.6135 18.8669 27.4851 18.6383 27.2565C18.4098 27.028 18.2813 26.718 18.2813 26.3947V20.7186H12.6052C12.282 20.7186 11.972 20.5902 11.7434 20.3616C11.5149 20.1331 11.3865 19.8231 11.3865 19.4999Z" fill="#B86200"/>
<path fill-rule="evenodd" clip-rule="evenodd" d="M11.89 6.12464C16.9477 5.56392 22.052 5.56392 27.1097 6.12464C30.0786 6.45614 32.4755 8.79452 32.8232 11.7796C33.4245 16.9098 33.4245 22.0919 32.8232 27.222C32.4738 30.2071 30.077 32.5439 27.1097 32.877C22.052 33.4377 16.9477 33.4377 11.89 32.877C8.92108 32.5439 6.52421 30.2071 6.17646 27.222C5.5779 22.092 5.5779 16.9097 6.17646 11.7796C6.52421 8.79452 8.92271 6.45614 11.89 6.12464ZM26.84 8.54589C21.9615 8.00513 17.0382 8.00513 12.1597 8.54589C11.2566 8.64608 10.4136 9.04781 9.76702 9.68618C9.1204 10.3245 8.70787 11.1623 8.59608 12.064C8.01812 17.0056 8.01812 21.9977 8.59608 26.9393C8.70821 27.8407 9.12089 28.6781 9.76748 29.3161C10.4141 29.9542 11.2568 30.3556 12.1597 30.4558C16.9973 30.9953 22.0023 30.9953 26.84 30.4558C27.7425 30.3553 28.5849 29.9537 29.2312 29.3156C29.8775 28.6776 30.2899 27.8405 30.402 26.9393C30.9799 21.9977 30.9799 17.0056 30.402 12.064C30.2896 11.1631 29.877 10.3263 29.2307 9.68863C28.5845 9.05094 27.7423 8.64953 26.84 8.54914" fill="#B86200"/>
</svg>
